HIERARCHY
ROOT Hips
{
	OFFSET -6.501393 103.544830 -3.308209
	CHANNELS 6 Xposition Yposition Zposition Xrotation Yrotation Zrotation
	JOINT Chest
	{
		OFFSET 3.490766 13.188873 -0.149589
		CHANNELS 3 Xrotation Yrotation Zrotation
		JOINT Chest2
		{
			OFFSET 2.498665 20.695694 4.950911
			CHANNELS 3 Xrotation Yrotation Zrotation
			JOINT Chest3
			{
				OFFSET 2.586676 14.483231 2.522879
				CHANNELS 3 Xrotation Yrotation Zrotation
				JOINT Neck
				{
					OFFSET 3.658716 16.642105 2.875753
					CHANNELS 3 Xrotation Yrotation Zrotation
					JOINT Head
					{
						OFFSET 0.562498 9.917938 3.338517
						CHANNELS 3 Xrotation Yrotation Zrotation
						End Site
						{
							OFFSET 0.623727 9.927261 3.299727
						}
					}
				}
				JOINT LeftCollar
				{
					OFFSET 3.158933 11.826752 7.207877
					CHANNELS 3 Xrotation Yrotation Zrotation
					JOINT LeftUpArm
					{
						OFFSET 9.662516 -4.699112 13.894368
						CHANNELS 3 Xrotation Yrotation Zrotation
						JOINT LeftLowArm
						{
							OFFSET -26.061760 -12.379883 17.528591
							CHANNELS 3 Xrotation Yrotation Zrotation
							JOINT LeftHand
							{
								OFFSET -23.105013 -13.493835 13.602276
								CHANNELS 3 Xrotation Yrotation Zrotation
								End Site
								{
									OFFSET -5.049747 -2.949127 2.972858
								}
							}
						}
					}
				}
				JOINT RightCollar
				{
					OFFSET -1.958067 14.041336 0.903037
					CHANNELS 3 Xrotation Yrotation Zrotation
					JOINT RightUpArm
					{
						OFFSET -7.902977 5.073425 -14.842493
						CHANNELS 3 Xrotation Yrotation Zrotation
						JOINT RightLowArm
						{
							OFFSET -31.237156 3.028915 12.441875
							CHANNELS 3 Xrotation Yrotation Zrotation
							JOINT RightHand
							{
								OFFSET 1.770481 -9.929611 28.270538
								CHANNELS 3 Xrotation Yrotation Zrotation
								End Site
								{
									OFFSET 0.386944 -2.170212 6.178812
								}
							}
						}
					}
				}
			}
		}
	}
	JOINT LeftUpLeg
	{
		OFFSET 6.008414 -1.501137 7.878114
		CHANNELS 3 Xrotation Yrotation Zrotation
		JOINT LeftLowLeg
		{
			OFFSET -32.490929 -13.194344 31.847103
			CHANNELS 3 Xrotation Yrotation Zrotation
			JOINT LeftFoot
			{
				OFFSET -27.394722 -30.609779 17.695694
				CHANNELS 3 Xrotation Yrotation Zrotation
				JOINT LeftToe
				{
					OFFSET -14.301807 2.204399 18.712517
					CHANNELS 3 Xrotation Yrotation Zrotation
					End Site
					{
						OFFSET -6.634720 15.950195 16.159538
					}
				}
			}
		}
	}
	JOINT RightUpLeg
	{
		OFFSET -6.008467 1.500946 -7.878115
		CHANNELS 3 Xrotation Yrotation Zrotation
		JOINT RightLowLeg
		{
			OFFSET -7.669543 -46.691193 2.263450
			CHANNELS 3 Xrotation Yrotation Zrotation
			JOINT RightFoot
			{
				OFFSET 16.419405 -39.122486 -14.156796
				CHANNELS 3 Xrotation Yrotation Zrotation
				JOINT RightToe
				{
					OFFSET -13.268997 -16.468420 10.596312
					CHANNELS 3 Xrotation Yrotation Zrotation
					End Site
					{
						OFFSET -19.207935 -1.991539 13.661808
					}
				}
			}
		}
	}
}
MOTION
Frames: 13
Frame Time: 0.033333
-0.161350 106.130417 -1.111725 2.721283 51.828578 14.025651 -17.035790 4.243898 -11.880431 1.098160 2.509901 0.029985 -0.496236 -2.859693 1.616891 -2.727381 5.008941 -0.324315 0.000002 -0.000003 -0.000001 2.178901 34.281392 2.436769 -30.097761 49.217964 28.594722 -1.625797 4.024207 -4.962387 -0.000001 -0.000002 -0.000003 -6.061084 -18.951980 -1.480232 -23.294524 -46.012112 -25.824059 -49.482952 -56.609667 -58.786803 -0.000003 0.000000 -0.000001 39.876656 8.945889 44.977960 -10.910426 9.480332 -15.006064 -18.243994 -14.431843 -0.044294 -0.000003 -0.000002 0.000002 8.401760 0.885877 -9.832665 -19.359698 3.312091 -23.463062 13.000731 2.437507 8.881524 0.000001 0.000003 -0.000000 
-0.687376 106.717262 -1.115458 10.456247 49.449197 14.009579 -17.305987 4.486866 -5.361921 2.895038 2.455704 -0.173412 3.567690 0.995247 2.541091 -8.816133 0.363183 -2.551713 -0.000001 -0.000005 -0.000000 10.978650 27.356251 -3.273098 -19.536629 24.259688 26.725183 -61.847889 -14.794787 -97.908296 -0.000001 -0.000003 -0.000001 -14.059181 -12.728547 14.454885 12.751985 -45.350134 30.625250 28.400471 -9.291888 10.162029 -0.000003 -0.000002 -0.000002 39.206426 4.612684 36.672208 -8.648893 6.301423 -7.134140 -18.065017 -9.981443 -7.233607 -0.000001 -0.000002 0.000002 -2.321788 2.294136 -15.176216 -10.485270 -0.224395 -15.204022 10.360254 -6.159221 9.420489 0.000000 -0.000001 -0.000000 
-0.682893 106.728989 -1.117079 11.021671 49.555983 13.930932 -17.743208 4.786384 -5.899566 2.994595 2.374554 0.021937 3.711713 0.843980 2.668171 -8.862425 0.298875 -2.538114 -0.000000 -0.000003 -0.000001 11.041417 27.408151 -3.295506 -19.723310 24.295883 26.930627 -62.002449 -14.112920 -98.159681 0.000002 0.000002 0.000003 -13.727040 -12.284290 14.711394 12.967723 -45.493698 30.921468 27.712441 -8.886146 9.420306 -0.000001 0.000000 -0.000002 39.104196 4.545242 36.545142 -8.911232 6.533823 -7.517060 -18.197767 -10.246153 -7.190405 -0.000000 -0.000001 0.000005 -2.427208 2.310692 -15.288407 -10.697015 -0.283716 -15.394574 10.533443 -6.308533 9.389919 0.000001 0.000003 -0.000000 
-0.671685 106.741035 -1.119103 11.117952 49.884649 13.732484 -17.649528 4.679408 -5.688667 2.864822 2.290926 0.091156 3.696309 0.734412 2.473912 -9.004537 0.327693 -2.611017 0.000002 -0.000002 -0.000000 11.166958 27.287432 -3.338187 -19.731211 24.206426 26.763143 -62.004075 -14.050740 -98.185335 -0.000000 0.000000 -0.000001 -14.003816 -12.558317 14.666081 12.591187 -44.789427 30.305119 27.574502 -9.223625 9.376362 0.000004 0.000005 0.000003 39.169677 4.732930 36.695403 -9.006399 6.508781 -7.667909 -18.382592 -10.556375 -7.208890 -0.000001 0.000000 0.000004 -2.364727 2.241891 -15.148791 -10.801790 -0.304259 -15.398130 10.758639 -6.485603 9.504456 0.000000 0.000003 -0.000000 
-0.655846 106.749969 -1.117779 11.490771 49.881182 13.554162 -17.724886 4.683438 -5.659304 2.854322 2.197051 0.251787 3.630461 0.788028 2.236042 -8.969181 0.273618 -2.505208 -0.000000 0.000000 -0.000000 11.238696 27.072484 -3.227453 -19.951754 24.063445 26.961345 -61.903480 -12.957147 -97.919040 0.000001 0.000000 -0.000003 -14.081541 -12.913072 14.622132 12.839261 -44.605845 30.349946 27.669549 -8.914290 9.087988 0.000001 0.000006 0.000003 39.120410 4.809245 36.722430 -9.064885 6.571051 -7.843679 -18.471118 -10.744092 -7.179363 -0.000006 0.000002 0.000003 -2.541989 2.300162 -15.246439 -10.867687 -0.338791 -15.556400 10.846022 -6.236820 9.872541 0.000000 0.000003 0.000001 
-0.634576 106.757454 -1.121866 11.819104 50.030323 13.420564 -18.086703 4.882510 -5.944423 3.216361 2.039762 0.715045 3.446725 0.852324 1.991420 -9.030981 0.355504 -2.596721 0.000002 -0.000007 -0.000001 11.201343 27.255744 -3.304785 -19.658394 24.063455 26.776695 -62.256683 -13.606845 -98.612489 0.000001 -0.000005 -0.000001 -14.106029 -12.877696 14.510554 12.779043 -45.182958 30.446695 28.174476 -9.097750 9.639221 0.000004 -0.000002 -0.000004 39.106422 4.858142 36.789072 -9.264040 6.596030 -8.047193 -18.531362 -10.826160 -7.199711 -0.000003 -0.000003 -0.000003 -2.645434 2.344569 -15.368288 -11.070175 -0.299371 -15.658181 11.071885 -6.380144 10.109291 -0.000000 -0.000006 -0.000000 
-0.606851 106.761604 -1.125501 11.425382 49.952507 13.310837 -17.610968 4.540711 -5.257134 2.492047 2.348980 -0.214049 3.851384 0.487252 2.578945 -8.819622 0.343511 -2.589826 0.000002 -0.000001 -0.000001 11.265574 27.503695 -3.582046 -19.522545 24.298951 26.850409 -62.390424 -14.185482 -98.762514 -0.000003 0.000000 -0.000003 -13.883011 -12.291424 14.797306 12.916922 -46.175682 30.815864 28.659467 -9.088187 9.966036 0.000001 -0.000002 -0.000001 39.324281 5.069677 37.090533 -9.193007 6.667451 -8.173681 -18.522196 -10.881395 -7.187306 -0.000000 -0.000001 0.000001 -2.612235 2.328340 -15.246427 -10.736478 -0.345734 -15.290553 10.978279 -6.427922 9.983669 -0.000001 0.000006 -0.000000 
-0.580110 106.767281 -1.130344 11.105780 49.985947 13.305129 -17.462627 4.470591 -5.175081 2.684311 2.323876 -0.053866 3.640785 0.519405 2.504899 -8.928515 0.404693 -2.739170 -0.000000 -0.000005 -0.000001 11.456690 28.125624 -3.770835 -19.454344 23.980524 26.641908 -62.594886 -14.636863 -98.879406 -0.000000 -0.000003 -0.000004 -13.875978 -12.244370 14.945712 12.895734 -45.951030 30.651782 27.863758 -8.904011 9.270424 0.000001 -0.000002 -0.000004 39.425191 5.082631 37.162680 -9.229573 6.655563 -8.115623 -18.268367 -10.979674 -6.998494 -0.000002 -0.000003 -0.000000 -2.352213 2.225070 -15.001426 -10.770898 -0.329957 -15.287712 10.774856 -6.396723 9.714383 -0.000000 0.000006 -0.000000 
-0.557241 106.768494 -1.130569 11.275880 50.209943 13.295497 -17.480479 4.526920 -5.309991 2.191840 2.399172 -0.453831 4.074395 0.657643 2.879378 -9.082526 0.184349 -2.517468 0.000001 -0.000003 -0.000000 11.180180 27.463007 -3.520057 -19.390516 24.224948 26.706764 -62.614427 -14.663827 -99.138174 0.000003 -0.000001 -0.000001 -14.305138 -12.768254 14.722879 12.766195 -46.059251 30.477909 28.011869 -8.982311 9.588952 -0.000002 0.000000 -0.000002 39.591069 5.150293 37.267285 -9.408903 6.778852 -8.294104 -18.752781 -11.232734 -7.230649 -0.000004 -0.000003 -0.000001 -2.284204 2.179681 -15.051464 -10.883096 -0.276833 -15.239088 10.870537 -6.491797 9.865109 0.000001 -0.000001 0.000000 
-0.530486 106.765793 -1.131618 11.274317 50.386866 13.157506 -17.506092 4.529328 -5.276975 2.341100 2.323253 -0.259935 3.774992 0.439506 2.567866 -8.817784 0.086634 -2.316190 -0.000000 -0.000003 -0.000001 11.177537 27.742060 -3.678292 -19.305593 24.393192 26.781756 -62.856585 -15.298509 -99.391253 0.000003 -0.000002 -0.000003 -14.221686 -12.612649 14.731919 12.860725 -46.766336 30.694488 27.952769 -8.573428 9.394494 -0.000001 -0.000001 0.000004 39.789520 5.297260 37.409499 -9.343753 6.921257 -8.217408 -19.055217 -11.494484 -7.322423 -0.000003 -0.000003 0.000002 -2.268469 2.114513 -14.897916 -10.952586 -0.342029 -15.299987 11.158022 -6.658704 10.088843 0.000001 0.000003 -0.000000 
-0.502655 106.768875 -1.135564 10.716220 50.018513 13.468432 -17.410362 4.589366 -5.521042 2.411720 2.437543 -0.391628 3.818769 0.597120 2.968212 -8.615584 0.159393 -2.269779 -0.000001 -0.000007 -0.000002 11.340960 27.797145 -3.710923 -19.606717 24.345799 26.894129 -63.004882 -15.562096 -99.505918 0.000001 -0.000001 -0.000001 -14.142089 -12.361817 15.183365 12.970553 -46.711524 30.587773 27.712465 -8.732434 9.130652 0.000001 0.000003 -0.000001 40.121016 5.385131 37.662756 -9.446045 6.841474 -8.427823 -18.644958 -11.303759 -7.158721 -0.000003 -0.000003 -0.000000 -1.935639 1.988054 -14.682470 -10.953266 -0.252358 -15.440556 10.974125 -6.521999 10.051269 0.000001 -0.000004 0.000001 
-0.476297 106.770073 -1.139892 11.155997 49.838839 13.469740 -17.724604 4.785079 -5.855817 2.564751 2.395270 -0.262827 3.722550 0.472854 2.961226 -8.408086 0.318970 -2.320736 0.000001 -0.000004 -0.000000 11.488657 27.937234 -3.907707 -19.617610 24.134385 26.503069 -62.627077 -15.634194 -98.941622 -0.000000 -0.000002 -0.000003 -14.118148 -12.081750 15.292763 12.755919 -46.623534 30.430200 27.659534 -8.857451 9.215120 0.000001 -0.000002 -0.000004 39.941365 5.292721 37.473314 -9.505506 6.839508 -8.551809 -18.681025 -11.202560 -7.221363 -0.000003 -0.000002 0.000002 -2.158180 2.062896 -14.965942 -10.923242 -0.264106 -15.485111 10.711156 -6.226792 10.014133 0.000000 -0.000001 0.000000 
-0.449027 106.758904 -1.145003 11.478818 49.621604 13.438254 -17.900930 4.863701 -5.937873 2.714147 2.301679 -0.023054 3.764652 0.694614 2.918178 -8.693710 0.451551 -2.709267 -0.000000 -0.000003 -0.000000 11.223655 27.597519 -3.659824 -19.735471 24.147779 26.666167 -62.217764 -14.282372 -98.319644 -0.000000 -0.000002 -0.000002 -14.236825 -12.476747 15.070973 12.669826 -45.918778 30.175444 27.441781 -8.726444 8.890230 -0.000001 0.000001 -0.000002 39.892639 5.237109 37.421920 -9.509836 6.870527 -8.573634 -18.606386 -10.790594 -7.322749 -0.000002 -0.000005 0.000002 -2.119256 2.063656 -14.908693 -11.002421 -0.254532 -15.613799 10.417652 -6.051549 9.769721 -0.000000 -0.000001 0.000000 
